# MagicaVoxel @ Ephtracy

# group
o 

# material
mtllib charactor2.vox.mtl
usemtl palette

# normals
vn -1 0 0
vn 1 0 0
vn 0 0 1
vn 0 0 -1
vn 0 -1 0
vn 0 1 0

# texcoords
vt 0.146484 0.5
vt 0.470703 0.5
vt 0.587891 0.5
vt 0.591797 0.5

# verts
v -0.3 0.3 0.1
v -0.3 0.3 -0.2
v -0.3 0.4 0.1
v -0.3 0.4 -0.2
v -0.2 0.3 0.3
v -0.2 0.3 0.1
v -0.2 0.3 -0.2
v -0.2 0.3 -0.3
v -0.2 0.4 0.3
v -0.2 0.4 0.1
v -0.2 0.4 -0.2
v -0.2 0.4 -0.3
v -0.2 0.5 0.3
v -0.2 0.5 -0.3
v -0.2 0.6 0.3
v -0.2 0.6 -0.3
v -0.1 0.6 0.2
v -0.1 0.6 -0.2
v -0.1 0.7 0.2
v -0.1 0.7 -0.2
v 0 0.7 0.1
v 0 0.7 -0.1
v 0 0.8 0.1
v 0 0.8 -0.1
v 0 0.9 0.1
v 0 0.9 -0.1
v 0.1 0.7 0.1
v 0.1 0.7 -0.1
v 0.1 0.8 0.1
v 0.1 0.8 -0.1
v 0.1 0.9 0.1
v 0.1 0.9 -0.1
v 0.2 0.6 -0.1
v 0.2 0.6 -0.2
v 0.2 0.7 -0.1
v 0.2 0.7 -0.2
v 0.3 0.3 0.3
v 0.3 0.3 0.2
v 0.3 0.3 -0.1
v 0.3 0.3 -0.3
v 0.3 0.4 0.3
v 0.3 0.4 0.2
v 0.3 0.4 -0.1
v 0.3 0.4 -0.3
v 0.3 0.5 0.3
v 0.3 0.5 0.2
v 0.3 0.5 -0.1
v 0.3 0.5 -0.3
v 0.3 0.6 0.3
v 0.3 0.6 0.2
v 0.3 0.6 -0.1
v 0.3 0.6 -0.3
v 0.4 0.3 0.2
v 0.4 0.3 -0.1
v 0.4 0.7 0.2
v 0.4 0.7 -0.1
v -0.2 0.3 0.3
v -0.2 0.4 0.3
v -0.2 0.5 0.3
v -0.2 0.6 0.3
v 0.3 0.3 0.3
v 0.3 0.4 0.3
v 0.3 0.5 0.3
v 0.3 0.6 0.3
v -0.1 0.6 0.2
v -0.1 0.7 0.2
v 0.2 0.6 0.2
v 0.2 0.7 0.2
v 0.3 0.3 0.2
v 0.3 0.4 0.2
v 0.3 0.5 0.2
v 0.3 0.6 0.2
v 0.4 0.3 0.2
v 0.4 0.7 0.2
v -0.3 0.3 0.1
v -0.3 0.4 0.1
v -0.2 0.3 0.1
v -0.2 0.4 0.1
v 0 0.7 0.1
v 0 0.8 0.1
v 0 0.9 0.1
v 0.1 0.7 0.1
v 0.1 0.8 0.1
v 0.1 0.9 0.1
v 0 0.7 -0.1
v 0 0.8 -0.1
v 0 0.9 -0.1
v 0.1 0.7 -0.1
v 0.1 0.8 -0.1
v 0.1 0.9 -0.1
v 0.2 0.6 -0.1
v 0.2 0.7 -0.1
v 0.3 0.3 -0.1
v 0.3 0.4 -0.1
v 0.3 0.5 -0.1
v 0.3 0.6 -0.1
v 0.4 0.3 -0.1
v 0.4 0.7 -0.1
v -0.3 0.3 -0.2
v -0.3 0.4 -0.2
v -0.2 0.3 -0.2
v -0.2 0.4 -0.2
v -0.1 0.6 -0.2
v -0.1 0.7 -0.2
v 0.2 0.6 -0.2
v 0.2 0.7 -0.2
v -0.2 0.3 -0.3
v -0.2 0.4 -0.3
v -0.2 0.5 -0.3
v -0.2 0.6 -0.3
v 0.3 0.3 -0.3
v 0.3 0.4 -0.3
v 0.3 0.5 -0.3
v 0.3 0.6 -0.3
v -0.2 0.3 0.3
v 0.3 0.3 0.3
v 0.3 0.3 0.2
v 0.4 0.3 0.2
v -0.3 0.3 0.1
v -0.2 0.3 0.1
v 0.3 0.3 -0.1
v 0.4 0.3 -0.1
v -0.3 0.3 -0.2
v -0.2 0.3 -0.2
v -0.2 0.3 -0.3
v 0.3 0.3 -0.3
v -0.3 0.4 0.1
v -0.2 0.4 0.1
v -0.3 0.4 -0.2
v -0.2 0.4 -0.2
v -0.2 0.6 0.3
v 0.3 0.6 0.3
v -0.1 0.6 0.2
v 0.2 0.6 0.2
v 0.3 0.6 0.2
v 0.2 0.6 -0.1
v 0.3 0.6 -0.1
v -0.1 0.6 -0.2
v 0.2 0.6 -0.2
v -0.2 0.6 -0.3
v 0.3 0.6 -0.3
v -0.1 0.7 0.2
v 0.2 0.7 0.2
v 0.4 0.7 0.2
v 0 0.7 0.1
v 0.1 0.7 0.1
v 0 0.7 -0.1
v 0.1 0.7 -0.1
v 0.2 0.7 -0.1
v 0.4 0.7 -0.1
v -0.1 0.7 -0.2
v 0.2 0.7 -0.2
v 0 0.9 0.1
v 0.1 0.9 0.1
v 0 0.9 -0.1
v 0.1 0.9 -0.1

# faces
f 3/1/1 2/1/1 1/1/1
f 4/1/1 2/1/1 3/1/1
f 9/3/1 6/3/1 5/3/1
f 10/3/1 6/3/1 9/3/1
f 11/3/1 8/3/1 7/3/1
f 12/3/1 8/3/1 11/3/1
f 13/2/1 10/2/1 9/2/1
f 13/2/1 11/2/1 10/2/1
f 13/2/1 12/2/1 11/2/1
f 14/2/1 12/2/1 13/2/1
f 15/4/1 14/4/1 13/4/1
f 16/4/1 14/4/1 15/4/1
f 19/4/1 18/4/1 17/4/1
f 20/4/1 18/4/1 19/4/1
f 23/4/1 22/4/1 21/4/1
f 24/4/1 22/4/1 23/4/1
f 25/1/1 24/1/1 23/1/1
f 26/1/1 24/1/1 25/1/1
f 27/4/2 28/4/2 29/4/2
f 29/4/2 28/4/2 30/4/2
f 29/1/2 30/1/2 31/1/2
f 31/1/2 30/1/2 32/1/2
f 33/4/2 34/4/2 35/4/2
f 35/4/2 34/4/2 36/4/2
f 37/3/2 38/3/2 41/3/2
f 41/3/2 38/3/2 42/3/2
f 39/3/2 40/3/2 43/3/2
f 43/3/2 40/3/2 44/3/2
f 41/2/2 42/2/2 45/2/2
f 45/2/2 42/2/2 46/2/2
f 43/2/2 44/2/2 47/2/2
f 47/2/2 44/2/2 48/2/2
f 45/4/2 46/4/2 49/4/2
f 49/4/2 46/4/2 50/4/2
f 47/4/2 48/4/2 51/4/2
f 51/4/2 48/4/2 52/4/2
f 53/1/2 54/1/2 55/1/2
f 55/1/2 54/1/2 56/1/2
f 61/3/3 58/3/3 57/3/3
f 62/2/3 59/2/3 58/2/3
f 62/3/3 58/3/3 61/3/3
f 63/4/3 60/4/3 59/4/3
f 63/2/3 59/2/3 62/2/3
f 64/4/3 60/4/3 63/4/3
f 67/4/3 66/4/3 65/4/3
f 68/4/3 66/4/3 67/4/3
f 72/1/3 68/1/3 67/1/3
f 73/1/3 71/1/3 70/1/3
f 73/1/3 72/1/3 71/1/3
f 73/1/3 70/1/3 69/1/3
f 74/1/3 68/1/3 72/1/3
f 74/1/3 72/1/3 73/1/3
f 77/1/3 76/1/3 75/1/3
f 78/1/3 76/1/3 77/1/3
f 82/4/3 80/4/3 79/4/3
f 83/1/3 81/1/3 80/1/3
f 83/4/3 80/4/3 82/4/3
f 84/1/3 81/1/3 83/1/3
f 85/4/4 86/4/4 88/4/4
f 86/1/4 87/1/4 89/1/4
f 88/4/4 86/4/4 89/4/4
f 89/1/4 87/1/4 90/1/4
f 91/1/4 92/1/4 96/1/4
f 94/1/4 95/1/4 97/1/4
f 95/1/4 96/1/4 97/1/4
f 93/1/4 94/1/4 97/1/4
f 96/1/4 92/1/4 98/1/4
f 97/1/4 96/1/4 98/1/4
f 99/1/4 100/1/4 101/1/4
f 101/1/4 100/1/4 102/1/4
f 103/4/4 104/4/4 105/4/4
f 105/4/4 104/4/4 106/4/4
f 107/3/4 108/3/4 111/3/4
f 108/2/4 109/2/4 112/2/4
f 111/3/4 108/3/4 112/3/4
f 109/4/4 110/4/4 113/4/4
f 112/2/4 109/2/4 113/2/4
f 113/4/4 110/4/4 114/4/4
f 117/3/5 116/3/5 115/3/5
f 120/3/5 117/3/5 115/3/5
f 121/1/5 118/1/5 117/1/5
f 121/3/5 117/3/5 120/3/5
f 122/1/5 118/1/5 121/1/5
f 123/1/5 120/1/5 119/1/5
f 124/3/5 121/3/5 120/3/5
f 124/1/5 120/1/5 123/1/5
f 125/3/5 121/3/5 124/3/5
f 126/3/5 121/3/5 125/3/5
f 127/1/6 128/1/6 129/1/6
f 129/1/6 128/1/6 130/1/6
f 131/4/6 132/4/6 133/4/6
f 133/4/6 132/4/6 134/4/6
f 134/4/6 132/4/6 135/4/6
f 131/4/6 133/4/6 138/4/6
f 136/4/6 137/4/6 139/4/6
f 131/4/6 138/4/6 140/4/6
f 138/4/6 139/4/6 140/4/6
f 139/4/6 137/4/6 141/4/6
f 140/4/6 139/4/6 141/4/6
f 142/4/6 143/4/6 145/4/6
f 145/4/6 143/4/6 146/4/6
f 142/4/6 145/4/6 147/4/6
f 146/4/6 143/4/6 148/4/6
f 143/1/6 144/1/6 149/1/6
f 148/4/6 143/4/6 149/4/6
f 149/1/6 144/1/6 150/1/6
f 147/4/6 148/4/6 151/4/6
f 142/4/6 147/4/6 151/4/6
f 148/4/6 149/4/6 151/4/6
f 151/4/6 149/4/6 152/4/6
f 153/1/6 154/1/6 155/1/6
f 155/1/6 154/1/6 156/1/6
