# MagicaVoxel @ Ephtracy

# group
o 

# material
mtllib road.vox.mtl
usemtl palette

# normals
vn -1 0 0
vn 1 0 0
vn 0 0 1
vn 0 0 -1
vn 0 -1 0
vn 0 1 0

# texcoords
vt 0.0136719 0.5
vt 0.958984 0.5
vt 0.982422 0.5

# verts
v -2.5 0.3 2.5
v -2.5 0.3 -2.5
v -2.5 0.7 2.5
v -2.5 0.7 -2.5
v -2.5 0.8 2.5
v -2.5 0.8 -2.5
v 2.5 0.3 2.5
v 2.5 0.3 -2.5
v 2.5 0.7 2.5
v 2.5 0.7 -2.5
v 2.5 0.8 2.5
v 2.5 0.8 -2.5
v -2.5 0.3 2.5
v -2.5 0.7 2.5
v -2.5 0.8 2.5
v -2.2 0.7 2.5
v -2.2 0.8 2.5
v -0.7 0.7 2.5
v -0.7 0.8 2.5
v -0.4 0.7 2.5
v -0.4 0.8 2.5
v -0.3 0.7 2.5
v -0.3 0.8 2.5
v 0.3 0.7 2.5
v 0.3 0.8 2.5
v 0.4 0.7 2.5
v 0.4 0.8 2.5
v 0.7 0.7 2.5
v 0.7 0.8 2.5
v 2.2 0.7 2.5
v 2.2 0.8 2.5
v 2.5 0.3 2.5
v 2.5 0.7 2.5
v 2.5 0.8 2.5
v -2.5 0.3 -2.5
v -2.5 0.7 -2.5
v -2.5 0.8 -2.5
v -2.2 0.7 -2.5
v -2.2 0.8 -2.5
v -0.7 0.7 -2.5
v -0.7 0.8 -2.5
v -0.4 0.7 -2.5
v -0.4 0.8 -2.5
v -0.3 0.7 -2.5
v -0.3 0.8 -2.5
v 0.3 0.7 -2.5
v 0.3 0.8 -2.5
v 0.4 0.7 -2.5
v 0.4 0.8 -2.5
v 0.7 0.7 -2.5
v 0.7 0.8 -2.5
v 2.2 0.7 -2.5
v 2.2 0.8 -2.5
v 2.5 0.3 -2.5
v 2.5 0.7 -2.5
v 2.5 0.8 -2.5
v -2.5 0.3 2.5
v 2.5 0.3 2.5
v -2.5 0.3 -2.5
v 2.5 0.3 -2.5
v -2.5 0.8 2.5
v -2.2 0.8 2.5
v -0.7 0.8 2.5
v -0.4 0.8 2.5
v -0.3 0.8 2.5
v 0.3 0.8 2.5
v 0.4 0.8 2.5
v 0.7 0.8 2.5
v 2.2 0.8 2.5
v 2.5 0.8 2.5
v -1.7 0.8 2.3
v -1.4 0.8 2.3
v 1.3 0.8 2.2
v 1.6 0.8 2.2
v -1.7 0.8 1.5
v -1.4 0.8 1.5
v 1.3 0.8 1.3
v 1.6 0.8 1.3
v -1.7 0.8 0.8
v -1.4 0.8 0.8
v 1.3 0.8 0.8
v 1.6 0.8 0.8
v -1.7 0.8 -0.2
v -1.4 0.8 -0.2
v 1.3 0.8 -0.3
v 1.6 0.8 -0.3
v -1.7 0.8 -1.1
v -1.4 0.8 -1.1
v 1.3 0.8 -1.2
v 1.6 0.8 -1.2
v -1.7 0.8 -2.1
v -1.4 0.8 -2.1
v 1.3 0.8 -2.2
v 1.6 0.8 -2.2
v -2.5 0.8 -2.5
v -2.2 0.8 -2.5
v -0.7 0.8 -2.5
v -0.4 0.8 -2.5
v -0.3 0.8 -2.5
v 0.3 0.8 -2.5
v 0.4 0.8 -2.5
v 0.7 0.8 -2.5
v 2.2 0.8 -2.5
v 2.5 0.8 -2.5

# faces
f 3/3/1 2/3/1 1/3/1
f 4/3/1 2/3/1 3/3/1
f 5/2/1 4/2/1 3/2/1
f 6/2/1 4/2/1 5/2/1
f 7/3/2 8/3/2 9/3/2
f 9/3/2 8/3/2 10/3/2
f 9/2/2 10/2/2 11/2/2
f 11/2/2 10/2/2 12/2/2
f 16/3/3 14/3/3 13/3/3
f 16/2/3 15/2/3 14/2/3
f 17/2/3 15/2/3 16/2/3
f 18/3/3 16/3/3 13/3/3
f 18/3/3 17/3/3 16/3/3
f 19/3/3 17/3/3 18/3/3
f 20/3/3 18/3/3 13/3/3
f 20/2/3 19/2/3 18/2/3
f 21/2/3 19/2/3 20/2/3
f 22/3/3 20/3/3 13/3/3
f 22/3/3 21/3/3 20/3/3
f 23/3/3 21/3/3 22/3/3
f 24/3/3 22/3/3 13/3/3
f 24/1/3 23/1/3 22/1/3
f 25/1/3 23/1/3 24/1/3
f 26/3/3 24/3/3 13/3/3
f 26/3/3 25/3/3 24/3/3
f 27/3/3 25/3/3 26/3/3
f 28/3/3 26/3/3 13/3/3
f 28/2/3 27/2/3 26/2/3
f 29/2/3 27/2/3 28/2/3
f 30/3/3 28/3/3 13/3/3
f 30/3/3 29/3/3 28/3/3
f 31/3/3 29/3/3 30/3/3
f 32/3/3 30/3/3 13/3/3
f 33/2/3 31/2/3 30/2/3
f 33/3/3 30/3/3 32/3/3
f 34/2/3 31/2/3 33/2/3
f 35/3/4 36/3/4 38/3/4
f 36/2/4 37/2/4 38/2/4
f 38/2/4 37/2/4 39/2/4
f 35/3/4 38/3/4 40/3/4
f 38/3/4 39/3/4 40/3/4
f 40/3/4 39/3/4 41/3/4
f 35/3/4 40/3/4 42/3/4
f 40/2/4 41/2/4 42/2/4
f 42/2/4 41/2/4 43/2/4
f 35/3/4 42/3/4 44/3/4
f 42/3/4 43/3/4 44/3/4
f 44/3/4 43/3/4 45/3/4
f 35/3/4 44/3/4 46/3/4
f 44/1/4 45/1/4 46/1/4
f 46/1/4 45/1/4 47/1/4
f 35/3/4 46/3/4 48/3/4
f 46/3/4 47/3/4 48/3/4
f 48/3/4 47/3/4 49/3/4
f 35/3/4 48/3/4 50/3/4
f 48/2/4 49/2/4 50/2/4
f 50/2/4 49/2/4 51/2/4
f 35/3/4 50/3/4 52/3/4
f 50/3/4 51/3/4 52/3/4
f 52/3/4 51/3/4 53/3/4
f 35/3/4 52/3/4 54/3/4
f 52/2/4 53/2/4 55/2/4
f 54/3/4 52/3/4 55/3/4
f 55/2/4 53/2/4 56/2/4
f 59/3/5 58/3/5 57/3/5
f 60/3/5 58/3/5 59/3/5
f 62/3/6 63/3/6 71/3/6
f 71/3/6 63/3/6 72/3/6
f 68/3/6 69/3/6 73/3/6
f 73/3/6 69/3/6 74/3/6
f 62/3/6 71/3/6 75/3/6
f 71/2/6 72/2/6 75/2/6
f 72/3/6 63/3/6 76/3/6
f 75/2/6 72/2/6 76/2/6
f 73/2/6 74/2/6 77/2/6
f 68/3/6 73/3/6 77/3/6
f 74/3/6 69/3/6 78/3/6
f 77/2/6 74/2/6 78/2/6
f 62/3/6 75/3/6 79/3/6
f 75/3/6 76/3/6 79/3/6
f 76/3/6 63/3/6 80/3/6
f 79/3/6 76/3/6 80/3/6
f 68/3/6 77/3/6 81/3/6
f 77/3/6 78/3/6 81/3/6
f 78/3/6 69/3/6 82/3/6
f 81/3/6 78/3/6 82/3/6
f 62/3/6 79/3/6 83/3/6
f 79/2/6 80/2/6 83/2/6
f 80/3/6 63/3/6 84/3/6
f 83/2/6 80/2/6 84/2/6
f 68/3/6 81/3/6 85/3/6
f 81/2/6 82/2/6 85/2/6
f 82/3/6 69/3/6 86/3/6
f 85/2/6 82/2/6 86/2/6
f 62/3/6 83/3/6 87/3/6
f 83/3/6 84/3/6 87/3/6
f 84/3/6 63/3/6 88/3/6
f 87/3/6 84/3/6 88/3/6
f 68/3/6 85/3/6 89/3/6
f 85/3/6 86/3/6 89/3/6
f 86/3/6 69/3/6 90/3/6
f 89/3/6 86/3/6 90/3/6
f 62/3/6 87/3/6 91/3/6
f 87/2/6 88/2/6 91/2/6
f 88/3/6 63/3/6 92/3/6
f 91/2/6 88/2/6 92/2/6
f 68/3/6 89/3/6 93/3/6
f 89/2/6 90/2/6 93/2/6
f 90/3/6 69/3/6 94/3/6
f 93/2/6 90/2/6 94/2/6
f 61/2/6 62/2/6 95/2/6
f 62/3/6 91/3/6 96/3/6
f 95/2/6 62/2/6 96/2/6
f 91/3/6 92/3/6 96/3/6
f 63/2/6 64/2/6 97/2/6
f 96/3/6 92/3/6 97/3/6
f 92/3/6 63/3/6 97/3/6
f 64/3/6 65/3/6 98/3/6
f 97/2/6 64/2/6 98/2/6
f 65/1/6 66/1/6 99/1/6
f 98/3/6 65/3/6 99/3/6
f 66/3/6 67/3/6 100/3/6
f 99/1/6 66/1/6 100/1/6
f 67/2/6 68/2/6 101/2/6
f 100/3/6 67/3/6 101/3/6
f 68/3/6 93/3/6 102/3/6
f 101/2/6 68/2/6 102/2/6
f 93/3/6 94/3/6 102/3/6
f 94/3/6 69/3/6 103/3/6
f 102/3/6 94/3/6 103/3/6
f 69/2/6 70/2/6 103/2/6
f 103/2/6 70/2/6 104/2/6
