# MagicaVoxel @ Ephtracy

# group
o 

# material
mtllib enemy.vox.mtl
usemtl palette

# normals
vn -1 0 0
vn 1 0 0
vn 0 0 1
vn 0 0 -1
vn 0 -1 0
vn 0 1 0

# texcoords
vt 0.123047 0.5
vt 0.275391 0.5
vt 0.306641 0.5
vt 0.572266 0.5
vt 0.685547 0.5
vt 0.923828 0.5

# verts
v -0.4 0 0.4
v -0.4 0 -0.3
v -0.4 0.1 0.5
v -0.4 0.1 0.4
v -0.4 0.1 -0.3
v -0.4 0.2 0.4
v -0.4 0.2 -0.2
v -0.4 0.2 -0.3
v -0.4 0.3 0.4
v -0.4 0.3 -0.2
v -0.4 0.4 0.5
v -0.4 0.4 0.4
v -0.4 0.4 -0.2
v -0.2 0.4 0.3
v -0.2 0.4 -0.1
v -0.2 0.5 0.3
v -0.2 0.5 -0.1
v -0.1 0.5 0.3
v -0.1 0.5 0.2
v -0.1 0.5 0
v -0.1 0.6 0.2
v -0.1 0.6 0.1
v -0.1 0.6 0
v -0.1 0.7 0.3
v -0.1 0.7 0.1
v 0 0.5 0.1
v 0 0.5 0
v 0 0.6 0.1
v 0 0.6 0
v 0.2 0.4 0.3
v 0.2 0.4 -0.1
v 0.2 0.5 0.3
v 0.2 0.5 0.1
v 0.2 0.5 -0.1
v 0.2 0.7 0.3
v 0.2 0.7 0.1
v 0.4 0 0.4
v 0.4 0 -0.3
v 0.4 0.1 0.5
v 0.4 0.1 0.4
v 0.4 0.1 -0.3
v 0.4 0.2 0.4
v 0.4 0.2 -0.2
v 0.4 0.2 -0.3
v 0.4 0.3 0.4
v 0.4 0.3 -0.2
v 0.4 0.4 0.5
v 0.4 0.4 0.4
v 0.4 0.4 -0.2
v -0.4 0.1 0.5
v -0.4 0.4 0.5
v 0.4 0.1 0.5
v 0.4 0.4 0.5
v -0.4 0 0.4
v -0.4 0.1 0.4
v 0.4 0 0.4
v 0.4 0.1 0.4
v -0.2 0.4 0.3
v -0.2 0.5 0.3
v -0.1 0.5 0.3
v -0.1 0.7 0.3
v 0.2 0.4 0.3
v 0.2 0.5 0.3
v 0.2 0.7 0.3
v -0.1 0.6 0.1
v -0.1 0.7 0.1
v 0 0.5 0.1
v 0 0.6 0.1
v 0.2 0.5 0.1
v 0.2 0.7 0.1
v -0.1 0.5 0
v -0.1 0.6 0
v 0 0.5 0
v 0 0.6 0
v -0.2 0.4 -0.1
v -0.2 0.5 -0.1
v 0.2 0.4 -0.1
v 0.2 0.5 -0.1
v -0.4 0.2 -0.2
v -0.4 0.3 -0.2
v -0.4 0.4 -0.2
v 0.4 0.2 -0.2
v 0.4 0.3 -0.2
v 0.4 0.4 -0.2
v -0.4 0 -0.3
v -0.4 0.1 -0.3
v -0.4 0.2 -0.3
v 0.4 0 -0.3
v 0.4 0.1 -0.3
v 0.4 0.2 -0.3
v -0.4 0 0.4
v 0.4 0 0.4
v -0.4 0 -0.3
v 0.4 0 -0.3
v -0.4 0.1 0.5
v 0.4 0.1 0.5
v -0.4 0.1 0.4
v 0.4 0.1 0.4
v -0.4 0.2 -0.2
v 0.4 0.2 -0.2
v -0.4 0.2 -0.3
v 0.4 0.2 -0.3
v -0.4 0.4 0.5
v 0.4 0.4 0.5
v -0.4 0.4 0.4
v 0.4 0.4 0.4
v -0.2 0.4 0.3
v 0.2 0.4 0.3
v -0.2 0.4 -0.1
v 0.2 0.4 -0.1
v -0.4 0.4 -0.2
v 0.4 0.4 -0.2
v -0.2 0.5 0.3
v -0.1 0.5 0.3
v -0.1 0.5 0.2
v 0 0.5 0.1
v 0.2 0.5 0.1
v -0.1 0.5 0
v 0 0.5 0
v -0.2 0.5 -0.1
v 0.2 0.5 -0.1
v -0.1 0.6 0.1
v 0 0.6 0.1
v -0.1 0.6 0
v 0 0.6 0
v -0.1 0.7 0.3
v 0.2 0.7 0.3
v -0.1 0.7 0.1
v 0.2 0.7 0.1

# faces
f 4/2/1 2/2/1 1/2/1
f 5/2/1 2/2/1 4/2/1
f 6/6/1 4/6/1 3/6/1
f 6/5/1 5/5/1 4/5/1
f 7/5/1 5/5/1 6/5/1
f 8/5/1 5/5/1 7/5/1
f 9/6/1 6/6/1 3/6/1
f 9/4/1 7/4/1 6/4/1
f 10/4/1 7/4/1 9/4/1
f 11/6/1 9/6/1 3/6/1
f 12/3/1 10/3/1 9/3/1
f 12/6/1 9/6/1 11/6/1
f 13/3/1 10/3/1 12/3/1
f 16/3/1 15/3/1 14/3/1
f 17/3/1 15/3/1 16/3/1
f 21/1/1 19/1/1 18/1/1
f 21/3/1 20/3/1 19/3/1
f 22/3/1 20/3/1 21/3/1
f 23/3/1 20/3/1 22/3/1
f 24/1/1 21/1/1 18/1/1
f 24/1/1 22/1/1 21/1/1
f 25/1/1 22/1/1 24/1/1
f 26/3/2 27/3/2 28/3/2
f 28/3/2 27/3/2 29/3/2
f 30/3/2 31/3/2 32/3/2
f 32/3/2 31/3/2 33/3/2
f 33/3/2 31/3/2 34/3/2
f 32/1/2 33/1/2 35/1/2
f 35/1/2 33/1/2 36/1/2
f 37/2/2 38/2/2 40/2/2
f 40/2/2 38/2/2 41/2/2
f 39/6/2 40/6/2 42/6/2
f 40/5/2 41/5/2 42/5/2
f 42/5/2 41/5/2 43/5/2
f 43/5/2 41/5/2 44/5/2
f 39/6/2 42/6/2 45/6/2
f 42/4/2 43/4/2 45/4/2
f 45/4/2 43/4/2 46/4/2
f 39/6/2 45/6/2 47/6/2
f 45/3/2 46/3/2 48/3/2
f 47/6/2 45/6/2 48/6/2
f 48/3/2 46/3/2 49/3/2
f 52/6/3 51/6/3 50/6/3
f 53/6/3 51/6/3 52/6/3
f 56/2/3 55/2/3 54/2/3
f 57/2/3 55/2/3 56/2/3
f 60/3/3 59/3/3 58/3/3
f 62/3/3 60/3/3 58/3/3
f 63/1/3 61/1/3 60/1/3
f 63/3/3 60/3/3 62/3/3
f 64/1/3 61/1/3 63/1/3
f 65/1/4 66/1/4 68/1/4
f 67/1/4 68/1/4 69/1/4
f 68/1/4 66/1/4 70/1/4
f 69/1/4 68/1/4 70/1/4
f 71/3/4 72/3/4 73/3/4
f 73/3/4 72/3/4 74/3/4
f 75/3/4 76/3/4 77/3/4
f 77/3/4 76/3/4 78/3/4
f 79/4/4 80/4/4 82/4/4
f 80/3/4 81/3/4 83/3/4
f 82/4/4 80/4/4 83/4/4
f 83/3/4 81/3/4 84/3/4
f 85/2/4 86/2/4 88/2/4
f 86/5/4 87/5/4 89/5/4
f 88/2/4 86/2/4 89/2/4
f 89/5/4 87/5/4 90/5/4
f 93/2/5 92/2/5 91/2/5
f 94/2/5 92/2/5 93/2/5
f 97/6/5 96/6/5 95/6/5
f 98/6/5 96/6/5 97/6/5
f 99/5/6 100/5/6 101/5/6
f 101/5/6 100/5/6 102/5/6
f 103/6/6 104/6/6 105/6/6
f 105/6/6 104/6/6 106/6/6
f 105/3/6 106/3/6 107/3/6
f 107/3/6 106/3/6 108/3/6
f 105/3/6 107/3/6 109/3/6
f 108/3/6 106/3/6 110/3/6
f 105/3/6 109/3/6 111/3/6
f 109/3/6 110/3/6 111/3/6
f 110/3/6 106/3/6 112/3/6
f 111/3/6 110/3/6 112/3/6
f 113/3/6 114/3/6 115/3/6
f 113/3/6 115/3/6 118/3/6
f 116/3/6 117/3/6 119/3/6
f 113/3/6 118/3/6 120/3/6
f 118/3/6 119/3/6 120/3/6
f 119/3/6 117/3/6 121/3/6
f 120/3/6 119/3/6 121/3/6
f 122/3/6 123/3/6 124/3/6
f 124/3/6 123/3/6 125/3/6
f 126/1/6 127/1/6 128/1/6
f 128/1/6 127/1/6 129/1/6
